<?xml version="1.0" encoding="UTF-8" standalone="no"?>
<!-- Created with Inkscape (http://www.inkscape.org/) -->

<svg
   xmlns:dc="http://purl.org/dc/elements/1.1/"
   xmlns:cc="http://creativecommons.org/ns#"
   xmlns:rdf="http://www.w3.org/1999/02/22-rdf-syntax-ns#"
   xmlns:svg="http://www.w3.org/2000/svg"
   xmlns="http://www.w3.org/2000/svg"
   xmlns:sodipodi="http://sodipodi.sourceforge.net/DTD/sodipodi-0.dtd"
   xmlns:inkscape="http://www.inkscape.org/namespaces/inkscape"
   width="175"
   height="29"
   viewBox="0 0 46.302091 7.6729194"
   version="1.1"
   id="svg8"
   inkscape:version="0.92.1 r15371"
   sodipodi:docname="letter-rivas.svg">
  <defs
     id="defs2">
    <clipPath
       id="clipPath4203-2"
       clipPathUnits="userSpaceOnUse">
      <path
         style="opacity:1;fill:#f0c5b5;fill-opacity:1;fill-rule:nonzero;stroke:none;stroke-width:0.16499999;stroke-linecap:round;stroke-linejoin:miter;stroke-miterlimit:4;stroke-dasharray:none;stroke-dashoffset:0;stroke-opacity:1"
         d="m 893.17144,-120.45883 c 28.51918,-7.64169 54.75537,9.98013 61.14173,38.7918 l 8.59271,38.765443 c 5.94264,26.809702 -8.03488,50.7146722 -33.53338,57.546973 -25.49849,6.8323 -49.55586,-6.8812524 -57.81424,-33.07045 l -11.94122,-37.868215 c -8.87508,-28.144823 5.0352,-56.523861 33.5544,-64.165551 z"
         id="path4206-8"
         inkscape:connector-curvature="0"
         sodipodi:nodetypes="ssszsss" />
    </clipPath>
    <clipPath
       id="clipPath4203-2-8"
       clipPathUnits="userSpaceOnUse">
      <path
         style="opacity:1;fill:#f0c5b5;fill-opacity:1;fill-rule:nonzero;stroke:none;stroke-width:0.16499999;stroke-linecap:round;stroke-linejoin:miter;stroke-miterlimit:4;stroke-dasharray:none;stroke-dashoffset:0;stroke-opacity:1"
         d="m 893.17144,-120.45883 c 28.51918,-7.64169 54.75537,9.98013 61.14173,38.7918 l 8.59271,38.765443 c 5.94264,26.809702 -8.03488,50.7146722 -33.53338,57.546973 -25.49849,6.8323 -49.55586,-6.8812524 -57.81424,-33.07045 l -11.94122,-37.868215 c -8.87508,-28.144823 5.0352,-56.523861 33.5544,-64.165551 z"
         id="path4206-8-3"
         inkscape:connector-curvature="0"
         sodipodi:nodetypes="ssszsss" />
    </clipPath>
    <clipPath
       id="clipPath4203-2-85"
       clipPathUnits="userSpaceOnUse">
      <path
         style="opacity:1;fill:#f0c5b5;fill-opacity:1;fill-rule:nonzero;stroke:none;stroke-width:0.16499999;stroke-linecap:round;stroke-linejoin:miter;stroke-miterlimit:4;stroke-dasharray:none;stroke-dashoffset:0;stroke-opacity:1"
         d="m 893.17144,-120.45883 c 28.51918,-7.64169 54.75537,9.98013 61.14173,38.7918 l 8.59271,38.765443 c 5.94264,26.809702 -8.03488,50.7146722 -33.53338,57.546973 -25.49849,6.8323 -49.55586,-6.8812524 -57.81424,-33.07045 l -11.94122,-37.868215 c -8.87508,-28.144823 5.0352,-56.523861 33.5544,-64.165551 z"
         id="path4206-8-6"
         inkscape:connector-curvature="0"
         sodipodi:nodetypes="ssszsss" />
    </clipPath>
    <clipPath
       id="clipPath4203-2-1"
       clipPathUnits="userSpaceOnUse">
      <path
         style="opacity:1;fill:#f0c5b5;fill-opacity:1;fill-rule:nonzero;stroke:none;stroke-width:0.16499999;stroke-linecap:round;stroke-linejoin:miter;stroke-miterlimit:4;stroke-dasharray:none;stroke-dashoffset:0;stroke-opacity:1"
         d="m 893.17144,-120.45883 c 28.51918,-7.64169 54.75537,9.98013 61.14173,38.7918 l 8.59271,38.765443 c 5.94264,26.809702 -8.03488,50.7146722 -33.53338,57.546973 -25.49849,6.8323 -49.55586,-6.8812524 -57.81424,-33.07045 l -11.94122,-37.868215 c -8.87508,-28.144823 5.0352,-56.523861 33.5544,-64.165551 z"
         id="path4206-8-8"
         inkscape:connector-curvature="0"
         sodipodi:nodetypes="ssszsss" />
    </clipPath>
    <clipPath
       id="clipPath4203-2-9"
       clipPathUnits="userSpaceOnUse">
      <path
         style="opacity:1;fill:#f0c5b5;fill-opacity:1;fill-rule:nonzero;stroke:none;stroke-width:0.16499999;stroke-linecap:round;stroke-linejoin:miter;stroke-miterlimit:4;stroke-dasharray:none;stroke-dashoffset:0;stroke-opacity:1"
         d="m 893.17144,-120.45883 c 28.51918,-7.64169 54.75537,9.98013 61.14173,38.7918 l 8.59271,38.765443 c 5.94264,26.809702 -8.03488,50.7146722 -33.53338,57.546973 -25.49849,6.8323 -49.55586,-6.8812524 -57.81424,-33.07045 l -11.94122,-37.868215 c -8.87508,-28.144823 5.0352,-56.523861 33.5544,-64.165551 z"
         id="path4206-8-7"
         inkscape:connector-curvature="0"
         sodipodi:nodetypes="ssszsss" />
    </clipPath>
    <clipPath
       id="clipPath4203-2-5"
       clipPathUnits="userSpaceOnUse">
      <path
         style="opacity:1;fill:#f0c5b5;fill-opacity:1;fill-rule:nonzero;stroke:none;stroke-width:0.16499999;stroke-linecap:round;stroke-linejoin:miter;stroke-miterlimit:4;stroke-dasharray:none;stroke-dashoffset:0;stroke-opacity:1"
         d="m 893.17144,-120.45883 c 28.51918,-7.64169 54.75537,9.98013 61.14173,38.7918 l 8.59271,38.765443 c 5.94264,26.809702 -8.03488,50.7146722 -33.53338,57.546973 -25.49849,6.8323 -49.55586,-6.8812524 -57.81424,-33.07045 l -11.94122,-37.868215 c -8.87508,-28.144823 5.0352,-56.523861 33.5544,-64.165551 z"
         id="path4206-8-88"
         inkscape:connector-curvature="0"
         sodipodi:nodetypes="ssszsss" />
    </clipPath>
    <clipPath
       id="clipPath4203-2-4"
       clipPathUnits="userSpaceOnUse">
      <path
         style="opacity:1;fill:#f0c5b5;fill-opacity:1;fill-rule:nonzero;stroke:none;stroke-width:0.16499999;stroke-linecap:round;stroke-linejoin:miter;stroke-miterlimit:4;stroke-dasharray:none;stroke-dashoffset:0;stroke-opacity:1"
         d="m 893.17144,-120.45883 c 28.51918,-7.64169 54.75537,9.98013 61.14173,38.7918 l 8.59271,38.765443 c 5.94264,26.809702 -8.03488,50.7146722 -33.53338,57.546973 -25.49849,6.8323 -49.55586,-6.8812524 -57.81424,-33.07045 l -11.94122,-37.868215 c -8.87508,-28.144823 5.0352,-56.523861 33.5544,-64.165551 z"
         id="path4206-8-33"
         inkscape:connector-curvature="0"
         sodipodi:nodetypes="ssszsss" />
    </clipPath>
    <clipPath
       id="clipPath4203-2-7"
       clipPathUnits="userSpaceOnUse">
      <path
         style="opacity:1;fill:#f0c5b5;fill-opacity:1;fill-rule:nonzero;stroke:none;stroke-width:0.16499999;stroke-linecap:round;stroke-linejoin:miter;stroke-miterlimit:4;stroke-dasharray:none;stroke-dashoffset:0;stroke-opacity:1"
         d="m 893.17144,-120.45883 c 28.51918,-7.64169 54.75537,9.98013 61.14173,38.7918 l 8.59271,38.765443 c 5.94264,26.809702 -8.03488,50.7146722 -33.53338,57.546973 -25.49849,6.8323 -49.55586,-6.8812524 -57.81424,-33.07045 l -11.94122,-37.868215 c -8.87508,-28.144823 5.0352,-56.523861 33.5544,-64.165551 z"
         id="path4206-8-9"
         inkscape:connector-curvature="0"
         sodipodi:nodetypes="ssszsss" />
    </clipPath>
    <clipPath
       id="clipPath4203-2-13"
       clipPathUnits="userSpaceOnUse">
      <path
         style="opacity:1;fill:#f0c5b5;fill-opacity:1;fill-rule:nonzero;stroke:none;stroke-width:0.16499999;stroke-linecap:round;stroke-linejoin:miter;stroke-miterlimit:4;stroke-dasharray:none;stroke-dashoffset:0;stroke-opacity:1"
         d="m 893.17144,-120.45883 c 28.51918,-7.64169 54.75537,9.98013 61.14173,38.7918 l 8.59271,38.765443 c 5.94264,26.809702 -8.03488,50.7146722 -33.53338,57.546973 -25.49849,6.8323 -49.55586,-6.8812524 -57.81424,-33.07045 l -11.94122,-37.868215 c -8.87508,-28.144823 5.0352,-56.523861 33.5544,-64.165551 z"
         id="path4206-8-1"
         inkscape:connector-curvature="0"
         sodipodi:nodetypes="ssszsss" />
    </clipPath>
    <clipPath
       id="clipPath4203-2-91"
       clipPathUnits="userSpaceOnUse">
      <path
         style="opacity:1;fill:#f0c5b5;fill-opacity:1;fill-rule:nonzero;stroke:none;stroke-width:0.16499999;stroke-linecap:round;stroke-linejoin:miter;stroke-miterlimit:4;stroke-dasharray:none;stroke-dashoffset:0;stroke-opacity:1"
         d="m 893.17144,-120.45883 c 28.51918,-7.64169 54.75537,9.98013 61.14173,38.7918 l 8.59271,38.765443 c 5.94264,26.809702 -8.03488,50.7146722 -33.53338,57.546973 -25.49849,6.8323 -49.55586,-6.8812524 -57.81424,-33.07045 l -11.94122,-37.868215 c -8.87508,-28.144823 5.0352,-56.523861 33.5544,-64.165551 z"
         id="path4206-8-5"
         inkscape:connector-curvature="0"
         sodipodi:nodetypes="ssszsss" />
    </clipPath>
  </defs>
  <sodipodi:namedview
     id="base"
     pagecolor="#ffffff"
     bordercolor="#666666"
     borderopacity="1.0"
     inkscape:pageopacity="0.0"
     inkscape:pageshadow="2"
     inkscape:zoom="5.1085714"
     inkscape:cx="87.5"
     inkscape:cy="14.5"
     inkscape:document-units="mm"
     inkscape:current-layer="layer1"
     showgrid="false"
     units="px"
     inkscape:window-width="1366"
     inkscape:window-height="705"
     inkscape:window-x="-8"
     inkscape:window-y="-8"
     inkscape:window-maximized="1" />
  <metadata
     id="metadata5">
    <rdf:RDF>
      <cc:Work
         rdf:about="">
        <dc:format>image/svg+xml</dc:format>
        <dc:type
           rdf:resource="http://purl.org/dc/dcmitype/StillImage" />
        <dc:title></dc:title>
      </cc:Work>
    </rdf:RDF>
  </metadata>
  <g
     inkscape:label="Camada 1"
     inkscape:groupmode="layer"
     id="layer1"
     transform="translate(0,-289.32698)">
    <g
       style="fill:#2d2d2d;fill-opacity:1"
       inkscape:label="Camada 1"
       id="g4401"
       transform="matrix(0.99999746,0,0,0.99999746,-0.18658698,0.14985252)">
      <g
         transform="matrix(0.29159915,0,0,0.29159915,-19.345745,312.81725)"
         id="g4399"
         style="font-style:normal;font-variant:normal;font-weight:normal;font-stretch:normal;font-size:35.55942917px;line-height:125%;font-family:'Source Code Pro';-inkscape-font-specification:'Source Code Pro';letter-spacing:0px;word-spacing:0px;fill:#2d2d2d;fill-opacity:1;stroke:none;stroke-width:0.90735227px;stroke-linecap:butt;stroke-linejoin:miter;stroke-opacity:1"
         aria-label="RIVELINO">
        <path
           id="path4383"
           style="font-style:normal;font-variant:normal;font-weight:normal;font-stretch:normal;font-family:Elianto;-inkscape-font-specification:Elianto;fill:#2d2d2d;fill-opacity:1;stroke-width:0.90735227px"
           d="m 87.149732,-71.179737 q 0,1.493496 -0.426713,2.844755 -0.426713,1.351258 -1.209021,2.524719 -0.746748,1.137902 -1.813531,2.062447 -1.066782,0.888986 -2.346922,1.457937 l 5.476152,7.46748 h -5.440593 l -4.907201,-6.685173 h -3.449264 l -0.888986,-4.37381 h 5.333914 q 1.102343,0 2.062447,-0.391153 0.960105,-0.426713 1.671293,-1.137902 0.711189,-0.746748 1.137902,-1.706853 0.426713,-0.960104 0.426713,-2.062447 0,-1.102342 -0.426713,-2.062446 -0.426713,-0.960105 -1.137902,-1.671294 -0.711188,-0.711188 -1.671293,-1.137901 -0.960104,-0.426714 -2.062447,-0.426714 h -6.080662 v 21.655693 h -4.37381 v -21.655693 -2.204684 -2.204685 h 10.454472 q 1.991328,0 3.73374,0.782308 1.777972,0.746748 3.093671,2.062447 1.315699,1.315698 2.062447,3.09367 0.782307,1.742412 0.782307,3.769299 z"
           inkscape:connector-curvature="0" />
        <path
           id="path4385"
           style="font-style:normal;font-variant:normal;font-weight:normal;font-stretch:normal;font-family:Elianto;-inkscape-font-specification:Elianto;fill:#2d2d2d;fill-opacity:1;stroke-width:0.90735227px"
           d="m 90.775683,-54.822399 v -26.065062 h 4.40937 v 26.065062 z"
           inkscape:connector-curvature="0" />
        <path
           id="path4387"
           style="font-style:normal;font-variant:normal;font-weight:normal;font-stretch:normal;font-family:Elianto;-inkscape-font-specification:Elianto;fill:#2d2d2d;fill-opacity:1;stroke-width:0.90735227px"
           d="m 111.3507,-62.360998 -2.098,-5.725068 4.80052,-12.801395 h 4.26713 z m -2.80919,-3.840418 2.09801,5.725068 -2.09801,5.653949 -9.778844,-26.065062 h 4.267134 l 5.51171,14.721604 z"
           inkscape:connector-curvature="0" />
        <path
           id="path4389"
           style="font-style:normal;font-variant:normal;font-weight:normal;font-stretch:normal;font-family:Elianto;-inkscape-font-specification:Elianto;fill:#2d2d2d;fill-opacity:1;stroke-width:0.90735227px"
           d="m 141.37842,-80.887461 v 4.409369 H 126.2301 v 9.672165 h 10.09888 l -0.85343,4.409369 h -9.24545 v 3.16479 h 15.14832 v 4.409369 h -19.55769 v 0 -4.409369 -3.16479 -4.409369 -9.672165 -2.204684 -2.204685 z"
           inkscape:connector-curvature="0" />
        <path
           id="path4391"
           style="font-style:normal;font-variant:normal;font-weight:normal;font-stretch:normal;font-family:Elianto;-inkscape-font-specification:Elianto;fill:#2d2d2d;fill-opacity:1;stroke-width:0.90735227px"
           d="m 163.90309,-59.231768 0.88899,4.409369 h -15.50391 v 0 h -4.40937 v -26.065062 h 4.40937 v 21.655693 z"
           inkscape:connector-curvature="0" />
        <path
           id="path4393"
           style="font-style:normal;font-variant:normal;font-weight:normal;font-stretch:normal;font-family:Elianto;-inkscape-font-specification:Elianto;fill:#2d2d2d;fill-opacity:1;stroke-width:0.90735227px"
           d="m 168.35358,-54.822399 v -26.065062 h 4.40937 v 26.065062 z"
           inkscape:connector-curvature="0" />
        <path
           id="path4395"
           style="font-style:normal;font-variant:normal;font-weight:normal;font-stretch:normal;font-family:Elianto;-inkscape-font-specification:Elianto;fill:#2d2d2d;fill-opacity:1;stroke-width:0.90735227px"
           d="m 190.56433,-66.130298 v 5.938425 l -10.27667,-10.632269 v 16.001743 h -3.9471 v -26.065062 z m 1.24458,-14.757163 h 3.9471 v 26.065062 l -3.9471,-4.089334 v -5.973985 0 z"
           inkscape:connector-curvature="0" />
        <path
           sodipodi:nodetypes="sccsscccscccscccsscccscssssccscccsscscscscs"
           inkscape:connector-curvature="0"
           id="path4397"
           style="font-style:normal;font-variant:normal;font-weight:normal;font-stretch:normal;font-family:Elianto;-inkscape-font-specification:Elianto;fill:#2d2d2d;fill-opacity:1;stroke-width:0.90735227px"
           d="m 212.34392,-80.887461 c 1.80168,0 3.48483,0.343741 5.04944,1.031224 1.58832,0.687482 2.96328,1.62388 4.12489,2.809195 1.18532,1.161608 2.12172,2.536572 2.8092,4.124893 0.68748,1.588321 1.03122,3.283321 1.03122,5.084999 0,1.801677 -0.34374,3.496677 -1.03122,5.084998 -0.68748,1.564615 -1.62388,2.939579 -2.8092,4.124894 -1.16161,1.161608 -2.53657,2.086153 -4.12489,2.773635 -1.56461,0.687483 -3.24776,1.031224 -5.04944,1.031224 -1.80167,0 -3.49667,-0.343741 -5.085,-1.031224 -1.56461,-0.687482 -2.93958,-1.612027 -4.12489,-2.773635 -1.18531,-1.185315 -2.12171,-2.560279 -2.80919,-4.124894 -0.68749,-1.588321 -1.03123,-3.283321 -1.03123,-5.084998 0,-1.801678 0.34374,-3.496678 1.03123,-5.084999 0.68748,-1.588321 1.62388,-2.963285 2.80919,-4.124893 1.18531,-1.185315 2.56028,-2.121713 4.12489,-2.809195 1.58833,-0.687483 3.28333,-1.031224 5.085,-1.031224 z m 8.56982,13.050311 c 0,-1.185315 -0.22521,-2.29951 -0.67562,-3.342587 -0.45042,-1.043076 -1.06678,-1.943915 -1.84909,-2.702516 -0.75861,-0.782307 -1.65945,-1.398671 -2.70252,-1.84909 -1.04308,-0.45042 -2.15728,-0.67563 -3.34259,-0.67563 -1.18531,0 -2.29951,0.22521 -3.34258,0.67563 -1.04308,0.450419 -1.95577,1.066783 -2.73808,1.84909 -0.7586,0.758601 -1.36311,1.65944 -1.81353,2.702516 -0.45042,1.043077 -0.67563,2.157272 -0.67563,3.342587 0,1.185314 0.22521,2.299509 0.67563,3.342586 0.45042,1.043077 1.05493,1.955769 1.81353,2.738076 0.78231,0.758601 1.695,1.363112 2.73808,1.813531 1.04307,0.450419 2.15727,0.675629 3.34258,0.675629 1.18531,0 2.29951,-0.22521 3.34259,-0.675629 1.04307,-0.450419 1.94391,-1.05493 2.70252,-1.813531 0.78231,-0.782307 1.39867,-1.694999 1.84909,-2.738076 0.45041,-1.043077 0.67562,-2.157272 0.67562,-3.342586 z m -3.29681,-3.704167 c 0,0.568951 -0.21335,1.05493 -0.64007,1.457936 -0.403,0.403008 -0.88898,0.604511 -1.45794,0.604511 -0.56894,0 -1.06677,-0.201503 -1.49349,-0.604511 -0.403,-0.403006 -0.60451,-0.888985 -0.60451,-1.457936 0,-0.592657 0.20151,-1.090489 0.60451,-1.493496 0.42672,-0.403007 0.92455,-0.604511 1.49349,-0.604511 0.56896,0 1.05494,0.201504 1.45794,0.604511 0.42672,0.403007 0.64007,0.900839 0.64007,1.493496 z" />
      </g>
    </g>
    <g
       transform="matrix(0.99999746,0,0,0.99999746,-0.15511792,0.12061989)"
       id="layer1-2"
       inkscape:label="Camada 1"
       style="fill:#ffffff;fill-opacity:1">
      <g
         aria-label="RIVELINO"
         style="font-style:normal;font-variant:normal;font-weight:normal;font-stretch:normal;font-size:35.55942917px;line-height:125%;font-family:'Source Code Pro';-inkscape-font-specification:'Source Code Pro';letter-spacing:0px;word-spacing:0px;fill:#ffffff;fill-opacity:1;stroke:none;stroke-width:0.90735227px;stroke-linecap:butt;stroke-linejoin:miter;stroke-opacity:1"
         id="text5261-8"
         transform="matrix(0.29159915,0,0,0.29159915,-19.345745,312.81725)">
        <path
           inkscape:connector-curvature="0"
           d="m 87.149732,-71.179737 q 0,1.493496 -0.426713,2.844755 -0.426713,1.351258 -1.209021,2.524719 -0.746748,1.137902 -1.813531,2.062447 -1.066782,0.888986 -2.346922,1.457937 l 5.476152,7.46748 h -5.440593 l -4.907201,-6.685173 h -3.449264 l -0.888986,-4.37381 h 5.333914 q 1.102343,0 2.062447,-0.391153 0.960105,-0.426713 1.671293,-1.137902 0.711189,-0.746748 1.137902,-1.706853 0.426713,-0.960104 0.426713,-2.062447 0,-1.102342 -0.426713,-2.062446 -0.426713,-0.960105 -1.137902,-1.671294 -0.711188,-0.711188 -1.671293,-1.137901 -0.960104,-0.426714 -2.062447,-0.426714 h -6.080662 v 21.655693 h -4.37381 v -21.655693 -2.204684 -2.204685 h 10.454472 q 1.991328,0 3.73374,0.782308 1.777972,0.746748 3.093671,2.062447 1.315699,1.315698 2.062447,3.09367 0.782307,1.742412 0.782307,3.769299 z"
           style="font-style:normal;font-variant:normal;font-weight:normal;font-stretch:normal;font-family:Elianto;-inkscape-font-specification:Elianto;fill:#ffffff;fill-opacity:1;stroke-width:0.90735227px"
           id="path5323-7" />
        <path
           inkscape:connector-curvature="0"
           d="m 90.775683,-54.822399 v -26.065062 h 4.40937 v 26.065062 z"
           style="font-style:normal;font-variant:normal;font-weight:normal;font-stretch:normal;font-family:Elianto;-inkscape-font-specification:Elianto;fill:#ffffff;fill-opacity:1;stroke-width:0.90735227px"
           id="path5325-7" />
        <path
           inkscape:connector-curvature="0"
           d="m 111.3507,-62.360998 -2.098,-5.725068 4.80052,-12.801395 h 4.26713 z m -2.80919,-3.840418 2.09801,5.725068 -2.09801,5.653949 -9.778844,-26.065062 h 4.267134 l 5.51171,14.721604 z"
           style="font-style:normal;font-variant:normal;font-weight:normal;font-stretch:normal;font-family:Elianto;-inkscape-font-specification:Elianto;fill:#ffffff;fill-opacity:1;stroke-width:0.90735227px"
           id="path5327-6" />
        <path
           inkscape:connector-curvature="0"
           d="m 141.37842,-80.887461 v 4.409369 H 126.2301 v 9.672165 h 10.09888 l -0.85343,4.409369 h -9.24545 v 3.16479 h 15.14832 v 4.409369 h -19.55769 v 0 -4.409369 -3.16479 -4.409369 -9.672165 -2.204684 -2.204685 z"
           style="font-style:normal;font-variant:normal;font-weight:normal;font-stretch:normal;font-family:Elianto;-inkscape-font-specification:Elianto;fill:#ffffff;fill-opacity:1;stroke-width:0.90735227px"
           id="path5329-7" />
        <path
           inkscape:connector-curvature="0"
           d="m 163.90309,-59.231768 0.88899,4.409369 h -15.50391 v 0 h -4.40937 v -26.065062 h 4.40937 v 21.655693 z"
           style="font-style:normal;font-variant:normal;font-weight:normal;font-stretch:normal;font-family:Elianto;-inkscape-font-specification:Elianto;fill:#ffffff;fill-opacity:1;stroke-width:0.90735227px"
           id="path5331-0" />
        <path
           inkscape:connector-curvature="0"
           d="m 168.35358,-54.822399 v -26.065062 h 4.40937 v 26.065062 z"
           style="font-style:normal;font-variant:normal;font-weight:normal;font-stretch:normal;font-family:Elianto;-inkscape-font-specification:Elianto;fill:#ffffff;fill-opacity:1;stroke-width:0.90735227px"
           id="path5333-2" />
        <path
           inkscape:connector-curvature="0"
           d="m 190.56433,-66.130298 v 5.938425 l -10.27667,-10.632269 v 16.001743 h -3.9471 v -26.065062 z m 1.24458,-14.757163 h 3.9471 v 26.065062 l -3.9471,-4.089334 v -5.973985 0 z"
           style="font-style:normal;font-variant:normal;font-weight:normal;font-stretch:normal;font-family:Elianto;-inkscape-font-specification:Elianto;fill:#ffffff;fill-opacity:1;stroke-width:0.90735227px"
           id="path5335-6" />
        <path
           d="m 212.34392,-80.887461 c 1.80168,0 3.48483,0.343741 5.04944,1.031224 1.58832,0.687482 2.96328,1.62388 4.12489,2.809195 1.18532,1.161608 2.12172,2.536572 2.8092,4.124893 0.68748,1.588321 1.03122,3.283321 1.03122,5.084999 0,1.801677 -0.34374,3.496677 -1.03122,5.084998 -0.68748,1.564615 -1.62388,2.939579 -2.8092,4.124894 -1.16161,1.161608 -2.53657,2.086153 -4.12489,2.773635 -1.56461,0.687483 -3.24776,1.031224 -5.04944,1.031224 -1.80167,0 -3.49667,-0.343741 -5.085,-1.031224 -1.56461,-0.687482 -2.93958,-1.612027 -4.12489,-2.773635 -1.18531,-1.185315 -2.12171,-2.560279 -2.80919,-4.124894 -0.68749,-1.588321 -1.03123,-3.283321 -1.03123,-5.084998 0,-1.801678 0.34374,-3.496678 1.03123,-5.084999 0.68748,-1.588321 1.62388,-2.963285 2.80919,-4.124893 1.18531,-1.185315 2.56028,-2.121713 4.12489,-2.809195 1.58833,-0.687483 3.28333,-1.031224 5.085,-1.031224 z m 8.56982,13.050311 c 0,-1.185315 -0.22521,-2.29951 -0.67562,-3.342587 -0.45042,-1.043076 -1.06678,-1.943915 -1.84909,-2.702516 -0.75861,-0.782307 -1.65945,-1.398671 -2.70252,-1.84909 -1.04308,-0.45042 -2.15728,-0.67563 -3.34259,-0.67563 -1.18531,0 -2.29951,0.22521 -3.34258,0.67563 -1.04308,0.450419 -1.95577,1.066783 -2.73808,1.84909 -0.7586,0.758601 -1.36311,1.65944 -1.81353,2.702516 -0.45042,1.043077 -0.67563,2.157272 -0.67563,3.342587 0,1.185314 0.22521,2.299509 0.67563,3.342586 0.45042,1.043077 1.05493,1.955769 1.81353,2.738076 0.78231,0.758601 1.695,1.363112 2.73808,1.813531 1.04307,0.450419 2.15727,0.675629 3.34258,0.675629 1.18531,0 2.29951,-0.22521 3.34259,-0.675629 1.04307,-0.450419 1.94391,-1.05493 2.70252,-1.813531 0.78231,-0.782307 1.39867,-1.694999 1.84909,-2.738076 0.45041,-1.043077 0.67562,-2.157272 0.67562,-3.342586 z m -3.29681,-3.704167 c 0,0.568951 -0.21335,1.05493 -0.64007,1.457936 -0.403,0.403008 -0.88898,0.604511 -1.45794,0.604511 -0.56894,0 -1.06677,-0.201503 -1.49349,-0.604511 -0.403,-0.403006 -0.60451,-0.888985 -0.60451,-1.457936 0,-0.592657 0.20151,-1.090489 0.60451,-1.493496 0.42672,-0.403007 0.92455,-0.604511 1.49349,-0.604511 0.56896,0 1.05494,0.201504 1.45794,0.604511 0.42672,0.403007 0.64007,0.900839 0.64007,1.493496 z"
           style="font-style:normal;font-variant:normal;font-weight:normal;font-stretch:normal;font-family:Elianto;-inkscape-font-specification:Elianto;fill:#ffffff;fill-opacity:1;stroke-width:0.90735227px"
           id="path5337-8"
           inkscape:connector-curvature="0"
           sodipodi:nodetypes="sccsscccscccscccsscccscssssccscccsscscscscs" />
      </g>
    </g>
  </g>
</svg>
